<svg width="382" height="239" viewBox="0 0 382 239" fill="none" xmlns="http://www.w3.org/2000/svg">
<path d="M308.523 205.95H300.541V204.817H307.389C309.481 204.817 311.177 203.121 311.177 201.029V142.292C311.177 141.536 310.955 140.832 310.574 140.24C311.619 140.915 312.311 142.089 312.311 143.426V202.163C312.311 204.254 310.615 205.95 308.523 205.95ZM299.802 205.95H298.465C298.524 205.58 298.559 205.202 298.569 204.817H299.802V205.95ZM281.32 205.95H268.381V204.817H281.217C281.227 205.202 281.262 205.58 281.32 205.95Z" fill="#63A4DA"/>
<path d="M307.389 204.817H267.248V138.504H307.389C309.481 138.504 311.177 140.2 311.177 142.292V201.029C311.177 203.121 309.481 204.817 307.389 204.817Z" fill="#28394B"/>
<path d="M274.097 204.828H270.295V138.504H274.097V204.828Z" fill="#4C6076"/>
<path d="M250.854 100.766H229.807C229.135 100.766 228.573 100.3 228.428 99.6721H249.188C249.969 99.6721 250.603 99.0381 250.603 98.2569V62.4119C250.603 62.3011 250.591 62.1937 250.566 62.0896H250.854C251.635 62.0896 252.269 62.7236 252.269 63.5055V99.3505C252.269 100.132 251.635 100.766 250.854 100.766Z" fill="#63A4DA"/>
<path d="M249.188 99.6722H228.141C227.359 99.6722 226.726 99.0422 226.726 98.2603C226.725 92.5887 226.725 68.0797 226.726 62.408C226.726 61.6268 227.359 60.9967 228.141 60.9967H249.188C249.969 60.9967 250.603 61.6301 250.603 62.412V98.257C250.603 99.0382 249.969 99.6722 249.188 99.6722Z" fill="#28394B"/>
<path d="M247.684 71.7012H229.787C229.383 71.7012 229.055 71.3736 229.055 70.969V65.2145C229.055 64.8106 229.383 64.483 229.787 64.483H247.684C248.088 64.483 248.416 64.8106 248.416 65.2145V70.969C248.416 71.3736 248.088 71.7012 247.684 71.7012Z" fill="#D4E7E3"/>
<path d="M229.937 71.7012H229.787C229.383 71.7012 229.055 71.3736 229.055 70.969V65.2151C229.055 64.8106 229.383 64.483 229.787 64.483H247.684C248.088 64.483 248.416 64.8106 248.416 65.2151V65.3644H230.669C230.265 65.3644 229.937 65.692 229.937 66.0965V71.7012Z" fill="#ADCBC8"/>
<path d="M240.029 96.4769H248.045C248.257 96.4769 248.429 96.3045 248.429 96.0916V93.3838C248.429 93.1716 248.257 92.9991 248.045 92.9991H240.029C239.817 92.9991 239.645 93.1716 239.645 93.3838V96.0916C239.645 96.3045 239.817 96.4769 240.029 96.4769Z" fill="#F06E42"/>
<path d="M229.439 96.4769H232.147C232.359 96.4769 232.532 96.3045 232.532 96.0916V93.3838C232.532 93.1716 232.359 92.9991 232.147 92.9991H229.439C229.227 92.9991 229.055 93.1716 229.055 93.3838V96.0916C229.055 96.3045 229.227 96.4769 229.439 96.4769ZM234.734 96.4769H237.442C237.655 96.4769 237.827 96.3045 237.827 96.0916V93.3838C237.827 93.1716 237.655 92.9991 237.442 92.9991H234.734C234.522 92.9991 234.35 93.1716 234.35 93.3838V96.0916C234.35 96.3045 234.522 96.4769 234.734 96.4769ZM245.325 91.3969H248.033C248.245 91.3969 248.417 91.2251 248.417 91.0122V88.3044C248.417 88.0922 248.245 87.9197 248.033 87.9197H245.325C245.112 87.9197 244.94 88.0922 244.94 88.3044V91.0122C244.94 91.2251 245.112 91.3969 245.325 91.3969ZM245.325 86.1875H248.033C248.245 86.1875 248.417 86.015 248.417 85.8028V83.095C248.417 82.8828 248.245 82.7103 248.033 82.7103H245.325C245.112 82.7103 244.94 82.8828 244.94 83.095V85.8028C244.94 86.015 245.112 86.1875 245.325 86.1875ZM244.951 77.8737V80.5815C244.951 80.7937 245.124 80.9661 245.337 80.9661H248.045C248.257 80.9661 248.429 80.7937 248.429 80.5815V77.8737C248.429 77.6614 248.257 77.489 248.045 77.489H245.337C245.124 77.489 244.951 77.6614 244.951 77.8737ZM229.439 91.3969H232.147C232.359 91.3969 232.532 91.2251 232.532 91.0122V88.3044C232.532 88.0922 232.359 87.9197 232.147 87.9197H229.439C229.227 87.9197 229.055 88.0922 229.055 88.3044V91.0122C229.055 91.2251 229.227 91.3969 229.439 91.3969ZM234.734 91.3969H237.442C237.655 91.3969 237.827 91.2251 237.827 91.0122V88.3044C237.827 88.0922 237.655 87.9197 237.442 87.9197H234.734C234.522 87.9197 234.35 88.0922 234.35 88.3044V91.0122C234.35 91.2251 234.522 91.3969 234.734 91.3969ZM240.029 91.3969H242.737C242.95 91.3969 243.122 91.2251 243.122 91.0122V88.3044C243.122 88.0922 242.95 87.9197 242.737 87.9197H240.029C239.817 87.9197 239.645 88.0922 239.645 88.3044V91.0122C239.645 91.2251 239.817 91.3969 240.029 91.3969ZM229.451 86.1755H232.159C232.371 86.1755 232.544 86.0038 232.544 85.7909V83.0831C232.544 82.8708 232.371 82.6984 232.159 82.6984H229.451C229.238 82.6984 229.067 82.8708 229.067 83.0831V85.7909C229.067 86.0038 229.238 86.1755 229.451 86.1755ZM234.742 86.1755H237.45C237.662 86.1755 237.835 86.0038 237.835 85.7909V83.0831C237.835 82.8708 237.662 82.6984 237.45 82.6984H234.742C234.53 82.6984 234.358 82.8708 234.358 83.0831V85.7909C234.358 86.0038 234.53 86.1755 234.742 86.1755ZM240.033 86.1755H242.741C242.954 86.1755 243.126 86.0038 243.126 85.7909V83.0831C243.126 82.8708 242.954 82.6984 242.741 82.6984H240.033C239.821 82.6984 239.649 82.8708 239.649 83.0831V85.7909C239.649 86.0038 239.821 86.1755 240.033 86.1755ZM229.453 80.9661H232.16C232.373 80.9661 232.545 80.7937 232.545 80.5815V77.8737C232.545 77.6614 232.373 77.489 232.16 77.489H229.453C229.24 77.489 229.068 77.6614 229.068 77.8737V80.5815C229.068 80.7937 229.24 80.9661 229.453 80.9661ZM234.746 80.9661H237.454C237.666 80.9661 237.839 80.7937 237.839 80.5815V77.8737C237.839 77.6614 237.666 77.489 237.454 77.489H234.746C234.534 77.489 234.362 77.6614 234.362 77.8737V80.5815C234.362 80.7937 234.534 80.9661 234.746 80.9661ZM240.041 80.9661H242.749C242.962 80.9661 243.134 80.7937 243.134 80.5815V77.8737C243.134 77.6614 242.962 77.489 242.749 77.489H240.041C239.829 77.489 239.657 77.6614 239.657 77.8737V80.5815C239.657 80.7937 239.829 80.9661 240.041 80.9661Z" fill="#6A7D8F"/>
<path d="M290.736 128.053C290.275 128.053 289.814 127.879 289.464 127.528C289.124 127.189 288.937 126.737 288.937 126.257C288.937 125.777 289.124 125.325 289.464 124.986L294.18 120.27C294.652 119.798 295.279 119.538 295.947 119.538C296.614 119.538 297.242 119.798 297.713 120.27C298.185 120.743 298.445 121.37 298.445 122.037C298.445 122.705 298.185 123.332 297.713 123.805L293.965 127.553C293.889 127.629 293.766 127.629 293.69 127.553C293.615 127.477 293.615 127.354 293.69 127.278L297.438 123.53C297.838 123.131 298.057 122.601 298.057 122.037C298.057 121.473 297.838 120.944 297.438 120.545C297.04 120.146 296.511 119.927 295.947 119.927C295.383 119.927 294.853 120.146 294.455 120.545L289.739 125.26C289.472 125.527 289.325 125.88 289.325 126.257C289.325 126.634 289.472 126.987 289.739 127.253C290.288 127.802 291.183 127.803 291.732 127.253L296.027 122.952C296.161 122.818 296.232 122.649 296.232 122.468C296.232 122.287 296.161 122.115 296.033 121.987L296.031 121.985C295.767 121.734 295.345 121.739 295.086 121.999L291.735 125.35C291.659 125.426 291.536 125.426 291.46 125.35C291.385 125.275 291.385 125.152 291.46 125.076L294.812 121.724C295.227 121.308 295.904 121.308 296.319 121.724L296.332 121.737C296.518 121.936 296.62 122.194 296.62 122.468C296.62 122.752 296.509 123.019 296.308 123.221L296.251 123.283L292.006 127.528C291.656 127.878 291.196 128.053 290.736 128.053Z" fill="white"/>
<path d="M280.666 132.576C279.562 132.576 278.55 131.838 278.251 130.723L276.879 125.603C276.851 125.5 276.913 125.393 277.016 125.366C277.122 125.338 277.226 125.399 277.254 125.503L278.626 130.623C278.928 131.747 280.087 132.415 281.212 132.115C282.335 131.814 283.004 130.655 282.703 129.531L280.978 123.089C280.777 122.338 280.001 121.892 279.252 122.092C278.501 122.294 278.054 123.068 278.255 123.819L279.832 129.69C279.881 129.873 279.993 130.019 280.15 130.109C280.307 130.199 280.49 130.224 280.664 130.176L280.67 130.175C281.019 130.069 281.223 129.704 281.129 129.351L279.901 124.773C279.873 124.669 279.935 124.563 280.038 124.535C280.145 124.509 280.249 124.569 280.277 124.673L281.504 129.251C281.655 129.818 281.318 130.403 280.75 130.556L280.731 130.56C280.466 130.623 280.193 130.582 279.956 130.445C279.709 130.303 279.532 130.074 279.459 129.798L279.434 129.716L277.88 123.919C277.624 122.962 278.194 121.975 279.151 121.717C280.107 121.459 281.096 122.03 281.353 122.989L283.079 129.43C283.435 130.761 282.642 132.134 281.312 132.49C281.096 132.547 280.879 132.576 280.666 132.576Z" fill="white"/>
<path d="M283.698 125.171C283.265 125.171 282.838 125.059 282.453 124.836C281.875 124.502 281.462 123.963 281.288 123.318C281.116 122.674 281.204 122 281.539 121.422L284.189 116.832C284.242 116.739 284.362 116.708 284.454 116.761C284.547 116.814 284.579 116.934 284.525 117.026L281.875 121.617C281.593 122.105 281.518 122.674 281.664 123.218C281.81 123.763 282.159 124.218 282.647 124.499C283.135 124.781 283.704 124.855 284.248 124.71C284.793 124.564 285.248 124.216 285.53 123.727L288.865 117.952C289.053 117.625 289.102 117.246 289.005 116.882C288.908 116.519 288.674 116.215 288.349 116.027C288.023 115.837 287.643 115.788 287.279 115.886C286.916 115.984 286.612 116.217 286.423 116.543L283.387 121.81C283.2 122.134 283.303 122.54 283.614 122.732L283.618 122.734C283.941 122.924 284.357 122.811 284.543 122.487L286.913 118.381C286.966 118.288 287.084 118.257 287.178 118.31C287.271 118.364 287.303 118.483 287.249 118.576L284.88 122.681C284.737 122.928 284.507 123.105 284.232 123.178C283.97 123.248 283.694 123.217 283.454 123.088L283.437 123.08C282.928 122.784 282.753 122.131 283.047 121.623L283.086 121.547L286.087 116.349C286.327 115.933 286.715 115.636 287.178 115.511C287.642 115.386 288.127 115.45 288.542 115.69C288.958 115.93 289.256 116.318 289.38 116.782C289.505 117.245 289.441 117.73 289.201 118.145L285.866 123.921C285.532 124.499 284.994 124.913 284.349 125.086C284.134 125.143 283.915 125.171 283.698 125.171Z" fill="white"/>
<path d="M85.3291 209.337L76.823 202.014L78.4644 195.321L79.4002 188.022H83.7361L87.3313 186.041L93.6469 190.294H97.6878L96.425 199.133L97.6878 205.549H91.6268L85.3291 209.337Z" fill="#63A4DA"/>
<path d="M91.9652 199.94H85.9042L79.6065 203.728L71.1011 196.404L72.7425 189.712L73.6782 182.412H78.0142L81.6087 180.431L87.9243 184.685H91.9652L90.7025 193.524L91.9652 199.94Z" fill="#F1F3F5"/>
<path d="M84.8941 194.029L85.4147 198.456L78.5825 196.152L80.4746 191.125L84.4226 189.144L90.7024 193.524L84.8941 194.029Z" fill="#D4E7E3"/>
<path d="M79.6063 188.051L78.0139 182.412H73.678L72.7422 189.712L79.6063 188.051Z" fill="#D4E7E3"/>
<path d="M87.2551 191.417L87.9243 184.685H91.9651L87.2551 191.417Z" fill="#D4E7E3"/>
<path d="M81.6086 180.431L87.9242 184.685L84.0101 186.681L81.6086 180.431Z" fill="#D4E7E3"/>
<path d="M79.6065 203.728L78.5826 196.152L71.1011 196.404L79.6065 203.728Z" fill="#D4E7E3"/>
<path d="M281.678 45.7061L229.67 45.5031C229.329 45.5018 229.054 45.2239 229.055 44.883L229.062 43.1567C229.063 42.8165 229.34 42.542 229.679 42.542C229.68 42.542 229.681 42.542 229.682 42.542L231.218 42.5479L231.209 44.7676L280.711 44.9613L279.854 44.1111L280.514 43.4618L279.86 42.7907L279.917 42.7383L281.688 42.7449L286.229 44.2252L281.678 45.7061Z" fill="#63A4DA"/>
<path d="M231.209 44.7675L280.711 44.9612L279.854 44.111L280.515 43.4617L279.86 42.7905L280.722 42L231.221 41.8064L231.209 44.7675Z" fill="#F06E42"/>
<path d="M280.711 44.9612L231.209 44.7675L231.215 43.2866L280.515 43.4617L279.854 44.111L280.711 44.9612Z" fill="#BA571E"/>
<path d="M280.515 43.4617L279.854 44.111L280.711 44.9612L285.262 43.4796L280.721 42L279.86 42.7905L280.515 43.4617Z" fill="#BEC2C7"/>
<path d="M231.221 41.8064L231.209 44.7676L228.703 44.7576C228.362 44.7563 228.087 44.4791 228.088 44.1382L228.095 42.4119C228.096 42.071 228.374 41.7951 228.714 41.7965L231.221 41.8064Z" fill="#F5ABAC"/>
<path d="M284.108 43.8557L285.263 43.4797L284.111 43.1043L284.108 43.8557Z" fill="#31445C"/>
<path d="M231.576 44.7689L231.587 41.8084L230.855 41.8051L230.844 44.7663L231.576 44.7689Z" fill="#78898B"/>
<path d="M116.467 205.456H115.254V78.1197H100.625V76.9743H116.467V205.456ZM107.411 202.097C106.724 202.097 106.167 201.54 106.167 200.853C106.167 200.165 106.724 199.608 107.411 199.608C108.099 199.608 108.656 200.165 108.656 200.853C108.656 201.54 108.099 202.097 107.411 202.097Z" fill="#63A4DA"/>
<path d="M107.411 202.097C106.724 202.097 106.166 201.54 106.166 200.853C106.166 200.165 106.724 199.608 107.411 199.608C108.099 199.608 108.656 200.165 108.656 200.853C108.656 201.54 108.099 202.097 107.411 202.097ZM99.4119 78.1196V206.601H115.254V78.1196H99.4119Z" fill="#D4E7E3"/>
<path d="M115.254 81.1074H109.672V80.6545H115.254V81.1074Z" fill="#EF6032"/>
<path d="M115.254 85.2278H111.32V84.7755H115.254V85.2278Z" fill="#EF6032"/>
<path d="M115.255 83.168H112.463V82.715H115.255V83.168Z" fill="#EF6032"/>
<path d="M115.255 87.2883H112.463V86.8354H115.255V87.2883Z" fill="#EF6032"/>
<path d="M115.254 89.3481H109.672V88.8958H115.254V89.3481Z" fill="#EF6032"/>
<path d="M115.254 89.3481H109.672V88.8958H115.254V89.3481Z" fill="#EF6032"/>
<path d="M115.254 93.4692H111.32V93.0163H115.254V93.4692Z" fill="#EF6032"/>
<path d="M115.255 91.4087H112.463V90.9557H115.255V91.4087Z" fill="#EF6032"/>
<path d="M115.255 95.5292H112.463V95.0762H115.255V95.5292Z" fill="#EF6032"/>
<path d="M115.254 97.5891H109.672V97.1368H115.254V97.5891Z" fill="#EF6032"/>
<path d="M115.254 97.5891H109.672V97.1368H115.254V97.5891Z" fill="#EF6032"/>
<path d="M115.254 101.71H111.32V101.257H115.254V101.71Z" fill="#EF6032"/>
<path d="M115.255 99.6497H112.463V99.1967H115.255V99.6497Z" fill="#EF6032"/>
<path d="M115.255 103.77H112.463V103.318H115.255V103.77Z" fill="#EF6032"/>
<path d="M115.254 105.831H109.672V105.378H115.254V105.831Z" fill="#EF6032"/>
<path d="M115.254 105.831H109.672V105.378H115.254V105.831Z" fill="#EF6032"/>
<path d="M115.254 109.951H111.32V109.498H115.254V109.951Z" fill="#EF6032"/>
<path d="M115.255 107.89H112.463V107.437H115.255V107.89Z" fill="#EF6032"/>
<path d="M115.255 112.011H112.463V111.559H115.255V112.011Z" fill="#EF6032"/>
<path d="M115.254 114.071H109.672V113.618H115.254V114.071Z" fill="#EF6032"/>
<path d="M115.254 114.071H109.672V113.618H115.254V114.071Z" fill="#EF6032"/>
<path d="M115.254 118.192H111.32V117.739H115.254V118.192Z" fill="#EF6032"/>
<path d="M115.255 116.131H112.463V115.679H115.255V116.131Z" fill="#EF6032"/>
<path d="M115.255 120.252H112.463V119.799H115.255V120.252Z" fill="#EF6032"/>
<path d="M115.254 122.312H109.672V121.86H115.254V122.312Z" fill="#EF6032"/>
<path d="M115.254 122.312H109.672V121.86H115.254V122.312Z" fill="#EF6032"/>
<path d="M115.254 126.433H111.32V125.98H115.254V126.433Z" fill="#EF6032"/>
<path d="M115.255 124.372H112.463V123.921H115.255V124.372Z" fill="#EF6032"/>
<path d="M115.255 128.493H112.463V128.04H115.255V128.493Z" fill="#EF6032"/>
<path d="M115.254 130.552H109.672V130.101H115.254V130.552Z" fill="#EF6032"/>
<path d="M115.254 130.552H109.672V130.101H115.254V130.552Z" fill="#EF6032"/>
<path d="M115.254 134.673H111.32V134.222H115.254V134.673Z" fill="#EF6032"/>
<path d="M115.255 132.614H112.463V132.161H115.255V132.614Z" fill="#EF6032"/>
<path d="M115.255 136.734H112.463V136.282H115.255V136.734Z" fill="#EF6032"/>
<path d="M115.254 138.794H109.672V138.342H115.254V138.794Z" fill="#EF6032"/>
<path d="M115.254 138.794H109.672V138.342H115.254V138.794Z" fill="#EF6032"/>
<path d="M115.254 142.914H111.32V142.463H115.254V142.914Z" fill="#EF6032"/>
<path d="M115.255 140.855H112.463V140.402H115.255V140.855Z" fill="#EF6032"/>
<path d="M115.255 144.975H112.463V144.523H115.255V144.975Z" fill="#EF6032"/>
<path d="M115.254 147.035H109.672V146.583H115.254V147.035Z" fill="#EF6032"/>
<path d="M115.254 147.035H109.672V146.583H115.254V147.035Z" fill="#EF6032"/>
<path d="M115.254 151.156H111.32V150.704H115.254V151.156Z" fill="#EF6032"/>
<path d="M115.255 149.095H112.463V148.644H115.255V149.095Z" fill="#EF6032"/>
<path d="M115.255 153.216H112.463V152.764H115.255V153.216Z" fill="#EF6032"/>
<path d="M115.254 155.276H109.672V154.824H115.254V155.276Z" fill="#EF6032"/>
<path d="M115.254 155.276H109.672V154.824H115.254V155.276Z" fill="#EF6032"/>
<path d="M115.254 159.397H111.32V158.944H115.254V159.397Z" fill="#EF6032"/>
<path d="M115.255 157.336H112.463V156.885H115.255V157.336Z" fill="#EF6032"/>
<path d="M115.255 161.457H112.463V161.004H115.255V161.457Z" fill="#EF6032"/>
<path d="M115.254 163.517H109.672V163.065H115.254V163.517Z" fill="#EF6032"/>
<path d="M115.254 163.517H109.672V163.065H115.254V163.517Z" fill="#EF6032"/>
<path d="M115.254 167.638H111.32V167.186H115.254V167.638Z" fill="#EF6032"/>
<path d="M115.255 165.577H112.463V165.125H115.255V165.577Z" fill="#EF6032"/>
<path d="M115.255 169.698H112.463V169.246H115.255V169.698Z" fill="#EF6032"/>
<path d="M115.254 171.758H109.672V171.306H115.254V171.758Z" fill="#EF6032"/>
<path d="M115.254 171.758H109.672V171.306H115.254V171.758Z" fill="#EF6032"/>
<path d="M115.254 175.878H111.32V175.427H115.254V175.878Z" fill="#EF6032"/>
<path d="M115.255 173.819H112.463V173.366H115.255V173.819Z" fill="#EF6032"/>
<path d="M115.255 177.939H112.463V177.487H115.255V177.939Z" fill="#EF6032"/>
<path d="M115.254 179.999H109.672V179.547H115.254V179.999Z" fill="#EF6032"/>
<path d="M115.254 179.999H109.672V179.547H115.254V179.999Z" fill="#EF6032"/>
<path d="M115.254 184.119H111.32V183.667H115.254V184.119Z" fill="#EF6032"/>
<path d="M115.255 182.06H112.463V181.607H115.255V182.06Z" fill="#EF6032"/>
<path d="M115.255 186.18H112.463V185.728H115.255V186.18Z" fill="#EF6032"/>
<path d="M115.254 188.24H109.672V187.788H115.254V188.24Z" fill="#EF6032"/>
<path d="M115.254 188.24H109.672V187.788H115.254V188.24Z" fill="#EF6032"/>
<path d="M115.254 192.361H111.32V191.909H115.254V192.361Z" fill="#EF6032"/>
<path d="M115.255 190.3H112.463V189.849H115.255V190.3Z" fill="#EF6032"/>
<path d="M115.255 194.421H112.463V193.969H115.255V194.421Z" fill="#EF6032"/>
<path d="M115.254 196.481H109.672V196.029H115.254V196.481Z" fill="#EF6032"/>
<path d="M115.254 196.481H109.672V196.029H115.254V196.481Z" fill="#EF6032"/>
<path d="M115.254 200.602H111.32V200.15H115.254V200.602Z" fill="#EF6032"/>
<path d="M115.255 198.541H112.463V198.089H115.255V198.541Z" fill="#EF6032"/>
<path d="M115.255 202.662H112.463V202.21H115.255V202.662Z" fill="#EF6032"/>
<path d="M115.254 204.722H109.672V204.271H115.254V204.722Z" fill="#EF6032"/>
<path d="M279.54 55.3562H232.02C231.753 55.3562 231.537 55.0836 231.537 54.7467V54.2865H228.61V52.3758H231.537V51.9156C231.537 51.5793 231.753 51.3061 232.02 51.3061H279.54C279.806 51.3061 280.023 51.7464 280.023 51.7464L285.545 52.6709V53.9914L280.023 54.9165C280.023 54.9165 279.806 55.3562 279.54 55.3562Z" fill="#63A4DA"/>
<path d="M228.088 51.4209H231.015V53.3315H228.088V51.4209Z" fill="#BEC2C7"/>
<path d="M279.018 54.4011H231.498C231.231 54.4011 231.015 54.1279 231.015 53.7917V50.9605C231.015 50.6236 231.231 50.351 231.498 50.351H279.018C279.285 50.351 279.502 50.6236 279.501 50.9605L279.501 53.7917C279.501 54.1286 279.284 54.4011 279.018 54.4011Z" fill="#28394B"/>
<path d="M247.47 54.4011H246.864V50.351H247.47V54.4011Z" fill="#BEC2C7"/>
<path d="M285.023 51.7159L279.5 50.7908V53.9608L285.023 53.0363V51.7159Z" fill="#BEC2C7"/>
<path d="M233.151 50.3511H232.545V49.4883C232.545 48.9935 232.893 48.591 233.319 48.591H245.236V49.1971H233.319C233.251 49.1971 233.151 49.3105 233.151 49.4883V50.3511Z" fill="#BEC2C7"/>
<path d="M91.7137 176.726H70.6394C69.699 176.726 68.8872 176.174 68.5085 175.378C68.8149 175.524 69.1578 175.605 69.5193 175.605H90.5942C91.8961 175.605 92.9519 174.549 92.9519 173.247V126.515C92.9519 126.41 92.9446 126.305 92.9313 126.203C93.1111 126.158 93.2901 126.11 93.4685 126.06C93.8439 126.478 94.072 127.03 94.072 127.635V174.367C94.072 175.67 93.0162 176.726 91.7137 176.726Z" fill="#63A4DA"/>
<path d="M90.5943 175.605H69.5193C68.2174 175.605 67.1616 174.549 67.1616 173.247V126.515C67.1616 125.213 68.2174 124.157 69.5193 124.157H90.5943C91.8961 124.157 92.9519 125.213 92.9519 126.515V173.247C92.9519 174.549 91.8961 175.605 90.5943 175.605Z" fill="#3A4B5E"/>
<path d="M91.932 167.75H68.1843V127.533H91.932V167.75Z" fill="white"/>
<path d="M68.1843 136.028L91.932 153.063V138.863L76.138 127.533H68.1843V136.028Z" fill="#F1F3F5"/>
<path d="M80.1246 169.811C79.2432 169.811 78.5263 170.528 78.5263 171.409C78.5263 172.289 79.2432 173.006 80.1246 173.006C81.0053 173.006 81.7222 172.289 81.7222 171.409C81.7222 170.528 81.0053 169.811 80.1246 169.811ZM80.1246 173.781C78.8154 173.781 77.751 172.717 77.751 171.409C77.751 170.1 78.8154 169.036 80.1246 169.036C81.433 169.036 82.4975 170.1 82.4975 171.409C82.4975 172.717 81.433 173.781 80.1246 173.781Z" fill="#626F70"/>
<path d="M223.431 100.233H179.948V98.9227H222.121V38.4573H223.431V100.233Z" fill="#63A4DA"/>
<path d="M178.639 98.9227H222.121V37.1472H178.639V98.9227Z" fill="white"/>
<path d="M217.539 54.9152H190.923V53.5443H217.539V54.9152Z" fill="#D4E7E3"/>
<path d="M217.539 62.7806H190.923V61.4105H217.539V62.7806Z" fill="#D4E7E3"/>
<path d="M217.539 70.646H190.923V69.2758H217.539V70.646Z" fill="#D4E7E3"/>
<path d="M184.902 56.0924L182.877 54.0677L183.534 53.4105L184.902 54.778L187.849 51.8314L188.506 52.4886L184.902 56.0924Z" fill="#50C062"/>
<path d="M184.902 63.9578L182.877 61.9337L183.534 61.2758L184.902 62.6433L187.849 59.6967L188.506 60.354L184.902 63.9578Z" fill="#50C062"/>
<path d="M184.902 71.8234L182.877 69.7993L183.534 69.1414L184.902 70.5096L187.849 67.5623L188.506 68.2196L184.902 71.8234Z" fill="#50C062"/>
<path d="M184.902 79.6888L182.877 77.6648L183.534 77.0069L184.902 78.3751L187.849 75.4272L188.506 76.085L184.902 79.6888Z" fill="#50C062"/>
<path d="M217.539 78.5117H190.923V77.1415H217.539V78.5117Z" fill="#D4E7E3"/>
<path d="M181.021 40.0642C180.814 40.0642 180.647 39.8971 180.647 39.6908V34.1306C180.647 33.9243 180.814 33.7572 181.021 33.7572C181.227 33.7572 181.394 33.9243 181.394 34.1306V39.6908C181.394 39.8971 181.227 40.0642 181.021 40.0642Z" fill="#28394B"/>
<path d="M184.54 40.0642C184.334 40.0642 184.167 39.8971 184.167 39.6908V34.1306C184.167 33.9243 184.334 33.7572 184.54 33.7572C184.747 33.7572 184.914 33.9243 184.914 34.1306V39.6908C184.914 39.8971 184.747 40.0642 184.54 40.0642Z" fill="#28394B"/>
<path d="M188.06 40.0642C187.854 40.0642 187.687 39.8971 187.687 39.6908V34.1306C187.687 33.9243 187.854 33.7572 188.06 33.7572C188.267 33.7572 188.434 33.9243 188.434 34.1306V39.6908C188.434 39.8971 188.267 40.0642 188.06 40.0642Z" fill="#28394B"/>
<path d="M191.58 40.0642C191.373 40.0642 191.206 39.8971 191.206 39.6908V34.1306C191.206 33.9243 191.373 33.7572 191.58 33.7572C191.787 33.7572 191.954 33.9243 191.954 34.1306V39.6908C191.954 39.8971 191.787 40.0642 191.58 40.0642Z" fill="#28394B"/>
<path d="M195.1 40.0642C194.893 40.0642 194.726 39.8971 194.726 39.6908V34.1306C194.726 33.9243 194.893 33.7572 195.1 33.7572C195.306 33.7572 195.474 33.9243 195.474 34.1306V39.6908C195.474 39.8971 195.306 40.0642 195.1 40.0642Z" fill="#28394B"/>
<path d="M198.62 40.0642C198.413 40.0642 198.246 39.8971 198.246 39.6908V34.1306C198.246 33.9243 198.413 33.7572 198.62 33.7572C198.826 33.7572 198.994 33.9243 198.994 34.1306V39.6908C198.994 39.8971 198.826 40.0642 198.62 40.0642Z" fill="#28394B"/>
<path d="M202.14 40.0642C201.933 40.0642 201.766 39.8971 201.766 39.6908V34.1306C201.766 33.9243 201.933 33.7572 202.14 33.7572C202.346 33.7572 202.513 33.9243 202.513 34.1306V39.6908C202.513 39.8971 202.346 40.0642 202.14 40.0642Z" fill="#28394B"/>
<path d="M205.659 40.0642C205.453 40.0642 205.286 39.8971 205.286 39.6908V34.1306C205.286 33.9243 205.453 33.7572 205.659 33.7572C205.866 33.7572 206.033 33.9243 206.033 34.1306V39.6908C206.033 39.8971 205.866 40.0642 205.659 40.0642Z" fill="#28394B"/>
<path d="M209.179 40.0642C208.973 40.0642 208.805 39.8971 208.805 39.6908V34.1306C208.805 33.9243 208.973 33.7572 209.179 33.7572C209.386 33.7572 209.553 33.9243 209.553 34.1306V39.6908C209.553 39.8971 209.386 40.0642 209.179 40.0642Z" fill="#28394B"/>
<path d="M212.699 40.0642C212.493 40.0642 212.326 39.8971 212.326 39.6908V34.1306C212.326 33.9243 212.493 33.7572 212.699 33.7572C212.905 33.7572 213.073 33.9243 213.073 34.1306V39.6908C213.073 39.8971 212.905 40.0642 212.699 40.0642Z" fill="#28394B"/>
<path d="M216.219 40.0642C216.012 40.0642 215.845 39.8971 215.845 39.6908V34.1306C215.845 33.9243 216.012 33.7572 216.219 33.7572C216.426 33.7572 216.593 33.9243 216.593 34.1306V39.6908C216.593 39.8971 216.426 40.0642 216.219 40.0642Z" fill="#28394B"/>
<path d="M219.739 40.0642C219.532 40.0642 219.365 39.8971 219.365 39.6908V34.1306C219.365 33.9243 219.532 33.7572 219.739 33.7572C219.945 33.7572 220.112 33.9243 220.112 34.1306V39.6908C220.112 39.8971 219.945 40.0642 219.739 40.0642Z" fill="#28394B"/>
<path d="M267.588 67.7361H266.848L266.123 62.654L266.53 62.6408C266.62 62.6381 266.706 62.6248 266.789 62.6023C267.264 62.475 267.608 62.0459 267.608 61.5326V61.1041C267.608 60.4907 267.109 59.9913 266.496 59.9913H264.385C264.384 59.9913 264.384 59.9913 264.384 59.9913C264.087 59.9913 263.808 60.1067 263.599 60.3163C263.388 60.5265 263.273 60.8064 263.273 61.1035L263.272 61.5332C263.272 62.1049 263.706 62.5784 264.281 62.6328L264.663 62.6686L263.939 67.7361H263.2L263.836 63.2867C263.077 63.0533 262.542 62.3549 262.541 61.5332L262.542 61.1035C262.542 60.6114 262.733 60.1478 263.081 59.7996C263.313 59.5682 263.596 59.405 263.905 59.3221C264.059 59.281 264.22 59.2598 264.386 59.2591H266.497C267.513 59.2598 268.34 60.0875 268.34 61.1041L268.34 61.5326C268.34 62.3841 267.769 63.0977 266.98 63.3093L266.956 63.3152L267.588 67.7361Z" fill="#63A4DA"/>
<path d="M267.154 73.1815H263.892L263.1 71.822L262.31 73.1815H260.393V67.736H263.201L263.081 68.5723L267.707 68.5717L267.588 67.736H270.393V73.1815H268.737L267.944 71.822L267.154 73.1815ZM266.863 67.8415L263.924 67.8408L263.939 67.736H266.848L266.863 67.8415Z" fill="#63A4DA"/>
<path d="M263.081 68.5724L263.2 67.7361H263.939L263.924 67.8409L266.863 67.8415L266.848 67.7361H267.587L267.707 68.5717L263.081 68.5724Z" fill="#5B99D1"/>
<path d="M266.163 61.9656C266.639 61.8383 266.983 61.4092 266.982 60.8966L266.983 60.4662C266.983 59.8534 266.483 59.3546 265.87 59.3546H263.759C263.463 59.3546 263.183 59.4687 262.972 59.6803C262.762 59.8898 262.647 60.1697 262.647 60.4668L262.647 60.8952C262.647 61.4689 263.08 61.9418 263.655 61.9961L264.037 62.0326L263.298 67.2036L266.237 67.2042L265.497 62.0167L265.905 62.0041C265.995 62.0008 266.081 61.9882 266.163 61.9656ZM263.282 58.6855C263.434 58.645 263.594 58.6231 263.76 58.6231H265.87C266.887 58.6231 267.714 59.4508 267.714 60.4668L267.713 60.8966C267.714 61.7567 267.135 62.4816 266.33 62.6779L267.08 67.9351H262.454L263.21 62.6494C262.45 62.4159 261.915 61.7169 261.915 60.8959V60.4668C261.915 59.6153 262.496 58.8964 263.282 58.6855Z" fill="#D4E7E3"/>
<path d="M259.767 67.0988V72.5449H261.684L262.474 71.1847L263.266 72.5449H266.528L267.318 71.1854L268.111 72.5449H269.767V67.0994L259.767 67.0988Z" fill="#28394B"/>
<path d="M274.61 100.335H256.645V78.3983H278.577V96.3616L274.61 100.335Z" fill="#63A4DA"/>
<path d="M273.264 98.9905H255.3V77.0527H277.232V95.016L273.264 98.9905Z" fill="#CCECCF"/>
<path d="M268 89.9745L271.968 86H268V89.9745Z" fill="#8AD597"/>
<path d="M287.817 184.06C287.583 183.968 287.345 183.886 287.102 183.814L287.163 183.715C288.145 182.135 288.145 180.171 287.163 178.59L286.7 177.845C286.977 177.831 287.25 177.804 287.52 177.766L287.79 178.2C288.912 180.007 288.921 182.248 287.817 184.06Z" fill="#253546"/>
<path d="M290.744 175.782V173.606C291.007 173.345 291.254 173.066 291.482 172.773V175.243C291.247 175.436 291 175.616 290.744 175.782Z" fill="#253546"/>
<path d="M290.744 203.908V201.732C291.007 201.47 291.254 201.192 291.482 200.898V203.369C291.247 203.561 291 203.742 290.744 203.908Z" fill="#61A4DA"/>
<path d="M291.113 205.956C290.909 205.956 290.744 205.791 290.744 205.587V204.773C290.998 204.627 291.244 204.468 291.482 204.298V205.587C291.482 205.791 291.317 205.956 291.113 205.956Z" fill="#61A4DA"/>
<path d="M291.482 186.134C291.244 185.964 290.998 185.805 290.744 185.658V176.648C290.998 176.501 291.244 176.342 291.482 176.173V186.134ZM291.482 157.574C291.244 157.404 290.998 157.245 290.744 157.098V156.285C290.744 156.08 290.909 155.915 291.113 155.915C291.317 155.915 291.482 156.08 291.482 156.285V157.574Z" fill="#253546"/>
<path d="M285.89 177.851C282.852 177.739 280.192 176.121 278.635 173.725C279.379 174.435 280.248 175.014 281.207 175.426C282.414 176.344 283.879 176.94 285.473 177.085L285.563 177.229C285.688 177.43 285.797 177.638 285.89 177.851ZM286.685 177.846C286.592 177.598 286.482 177.355 286.352 177.118C287.333 177.104 288.272 176.919 289.144 176.592V177.376C288.622 177.554 288.079 177.685 287.52 177.765C287.25 177.804 286.976 177.831 286.7 177.845C286.695 177.845 286.69 177.846 286.685 177.846ZM289.882 177.087V176.272C290.18 176.125 290.468 175.962 290.744 175.782C291 175.616 291.247 175.436 291.482 175.243C293.346 173.718 294.538 171.4 294.538 168.81V164.937C294.538 162.572 293.545 160.435 291.955 158.921C291.402 158.052 290.699 157.289 289.882 156.667V156.659C290.178 156.791 290.466 156.937 290.744 157.098C290.998 157.245 291.244 157.404 291.482 157.574C293.778 159.217 295.277 161.905 295.277 164.937V168.81C295.277 171.841 293.778 174.53 291.482 176.172C291.244 176.342 290.998 176.501 290.744 176.648C290.466 176.809 290.178 176.956 289.882 177.087Z" fill="#253546"/>
<path d="M286.229 205.983C283.05 205.983 280.25 204.335 278.635 201.85C279.379 202.56 280.249 203.14 281.207 203.552C282.603 204.614 284.344 205.244 286.229 205.244C287.374 205.244 288.465 205.011 289.459 204.591C289.477 204.594 289.495 204.595 289.512 204.595C289.642 204.595 289.757 204.528 289.823 204.426C290.141 204.273 290.449 204.1 290.744 203.908C291 203.741 291.247 203.561 291.482 203.369C293.346 201.843 294.538 199.526 294.538 196.935V196.934H295.277V196.935C295.277 199.967 293.778 202.655 291.482 204.298C291.244 204.468 290.998 204.627 290.744 204.773C289.414 205.543 287.872 205.983 286.229 205.983Z" fill="#61A4DA"/>
<path d="M294.538 196.934H295.277V195.801H294.538V196.934Z" fill="#5999D0"/>
<path d="M295.277 195.801H294.538V193.496C294.538 191.133 293.545 188.996 291.956 187.481C291.403 186.612 290.699 185.848 289.882 185.226V185.219C290.178 185.35 290.465 185.497 290.744 185.658C290.998 185.805 291.244 185.964 291.482 186.134C293.778 187.776 295.277 190.465 295.277 193.496V195.801Z" fill="#253546"/>
<path d="M285.626 183.651L285 183.261L285.563 182.354C286.545 180.774 286.545 178.809 285.563 177.229L285 176.322L285.626 175.932L286.189 176.839C287.321 178.66 287.321 180.922 286.189 182.743L285.626 183.651Z" fill="#D4E7E3"/>
<path d="M289.513 204.595C289.309 204.595 289.144 204.43 289.144 204.226V154.923C289.144 154.719 289.309 154.554 289.513 154.554C289.717 154.554 289.882 154.719 289.882 154.923V204.226C289.882 204.43 289.717 204.595 289.513 204.595Z" fill="#D4E7E3"/>
<path d="M289.513 168.232C289.309 168.232 289.144 168.067 289.144 167.863V165.953C289.144 162.223 286.108 159.189 282.378 159.189C282.174 159.189 282.009 159.024 282.009 158.819C282.009 158.616 282.174 158.451 282.378 158.451C286.516 158.451 289.882 161.816 289.882 165.953V167.863C289.882 168.067 289.717 168.232 289.513 168.232Z" fill="#D4E7E3"/>
<path d="M282.378 200.916C282.174 200.916 282.009 200.75 282.009 200.546C282.009 200.343 282.174 200.177 282.378 200.177C286.108 200.177 289.144 197.142 289.144 193.411V191.503C289.144 191.299 289.309 191.134 289.513 191.134C289.717 191.134 289.882 191.299 289.882 191.503V193.411C289.882 197.55 286.516 200.916 282.378 200.916Z" fill="#D4E7E3"/>
<path d="M284.629 176.127C283.414 176.127 282.257 175.877 281.207 175.426C279.21 173.907 277.919 171.506 277.919 168.81V164.937C277.919 160.355 281.647 156.627 286.229 156.627C287.254 156.627 288.237 156.814 289.144 157.155V161.877C288.789 161.54 288.402 161.237 287.987 160.975C286.612 159.427 284.607 158.451 282.378 158.451C282.174 158.451 282.009 158.616 282.009 158.819C282.009 159.024 282.174 159.189 282.378 159.189C283.521 159.189 284.598 159.473 285.543 159.976C285.039 159.868 284.515 159.811 283.978 159.811C283.775 159.811 283.609 159.977 283.609 160.181C283.609 160.385 283.775 160.55 283.978 160.55C285.269 160.55 286.476 160.914 287.504 161.543C288.525 162.728 289.144 164.27 289.144 165.953V174.861C288.119 175.487 286.953 175.906 285.706 176.06L285.626 175.932L285.362 176.096C285.12 176.116 284.875 176.127 284.629 176.127ZM278.635 173.725C276.981 172.144 275.95 169.916 275.95 167.447V163.575C275.95 158.782 279.836 154.897 284.629 154.897C286.283 154.897 287.828 155.359 289.144 156.162V156.37C288.229 156.058 287.248 155.889 286.229 155.889C281.239 155.889 277.18 159.947 277.18 164.937V168.81C277.18 170.62 277.716 172.308 278.635 173.725Z" fill="#46596B"/>
<path d="M289.144 162.709C288.839 162.077 288.449 161.493 287.987 160.975C288.402 161.237 288.789 161.54 289.144 161.877V162.709ZM287.504 161.543C286.476 160.914 285.269 160.55 283.978 160.55C283.775 160.55 283.609 160.385 283.609 160.181C283.609 159.977 283.775 159.811 283.978 159.811C284.515 159.811 285.039 159.868 285.543 159.976C286.291 160.373 286.956 160.906 287.504 161.543Z" fill="#435667"/>
<path d="M281.207 175.426C280.248 175.015 279.379 174.435 278.635 173.725C277.716 172.308 277.18 170.62 277.18 168.81V164.937C277.18 159.947 281.239 155.889 286.229 155.889C287.248 155.889 288.229 156.058 289.144 156.37V157.155C288.237 156.814 287.254 156.627 286.229 156.627C281.647 156.627 277.919 160.355 277.919 164.937V168.81C277.919 171.506 279.21 173.907 281.207 175.426Z" fill="#435667"/>
<path d="M289.882 174.356V164.013C290.43 164.99 290.744 166.117 290.744 167.315V173.606C290.473 173.874 290.186 174.125 289.882 174.356ZM291.482 172.773V169.225V167.315V158.503C291.645 158.636 291.802 158.775 291.955 158.921C292.811 160.266 293.307 161.863 293.307 163.575V167.447C293.307 169.455 292.626 171.303 291.482 172.773ZM290.744 164.07C290.507 163.578 290.217 163.114 289.882 162.688V157.474C290.18 157.62 290.467 157.784 290.744 157.964V164.07Z" fill="#46596B"/>
<path d="M290.744 173.606V167.316V169.225C290.744 169.429 290.909 169.594 291.113 169.594C291.317 169.594 291.482 169.429 291.482 169.225V172.773C291.254 173.066 291.007 173.345 290.744 173.606ZM291.482 167.316C291.482 166.154 291.217 165.053 290.744 164.071V157.964C291 158.13 291.247 158.311 291.482 158.503V167.316Z" fill="#435667"/>
<path d="M291.113 169.594C290.909 169.594 290.744 169.429 290.744 169.225V167.316C290.744 166.117 290.43 164.991 289.882 164.014V162.688C290.217 163.114 290.507 163.578 290.744 164.071C291.217 165.053 291.482 166.154 291.482 167.316V169.225C291.482 169.429 291.317 169.594 291.113 169.594Z" fill="#435667"/>
<path d="M291.955 158.921C291.802 158.776 291.645 158.636 291.482 158.503C291.247 158.311 291 158.13 290.744 157.964C290.467 157.784 290.18 157.62 289.882 157.474V156.667C290.699 157.289 291.402 158.052 291.955 158.921Z" fill="#435667"/>
<path d="M285.362 176.096L285.626 175.932L285.706 176.06C285.592 176.074 285.478 176.086 285.362 176.096Z" fill="#D4E7E3"/>
<path d="M289.144 174.861V165.953V167.863C289.144 168.067 289.309 168.232 289.513 168.232C289.717 168.232 289.882 168.067 289.882 167.863V174.356C289.645 174.537 289.398 174.705 289.144 174.861ZM289.882 165.953C289.882 164.792 289.617 163.691 289.144 162.709V161.877V157.155V156.37V156.162C289.398 156.318 289.645 156.486 289.882 156.667V157.474V162.688V164.014V165.953Z" fill="#D4E7E3"/>
<path d="M289.513 168.232C289.309 168.232 289.144 168.067 289.144 167.863V165.953C289.144 164.27 288.525 162.728 287.504 161.543C286.956 160.906 286.291 160.373 285.543 159.976C284.598 159.473 283.521 159.189 282.378 159.189C282.174 159.189 282.009 159.024 282.009 158.819C282.009 158.616 282.174 158.451 282.378 158.451C284.607 158.451 286.612 159.427 287.987 160.975C288.449 161.493 288.839 162.077 289.144 162.709C289.617 163.691 289.882 164.792 289.882 165.953V167.863C289.882 168.067 289.717 168.232 289.513 168.232Z" fill="#D4E7E3"/>
<path d="M284.629 204.252C283.414 204.252 282.257 204.003 281.207 203.552C279.21 202.032 277.919 199.632 277.919 196.935V196.934H288.152C286.962 198.878 284.819 200.177 282.378 200.177C282.174 200.177 282.009 200.343 282.009 200.546C282.009 200.75 282.174 200.916 282.378 200.916C285.243 200.916 287.739 199.301 289.002 196.934H289.144V199.139C287.901 200.606 286.047 201.539 283.978 201.539C283.774 201.539 283.609 201.704 283.609 201.908C283.609 202.113 283.774 202.278 283.978 202.278C285.978 202.278 287.797 201.491 289.144 200.212V202.987C287.828 203.79 286.283 204.252 284.629 204.252ZM278.635 201.85C277.291 200.566 276.359 198.855 276.056 196.934H277.18V196.935C277.18 198.745 277.715 200.434 278.635 201.85Z" fill="#7EBCE6"/>
<path d="M289.144 196.934H289.003C289.052 196.843 289.098 196.751 289.144 196.656V196.934ZM288.152 196.934H277.919V195.801H288.708C288.558 196.198 288.371 196.577 288.152 196.934ZM277.18 196.934H276.056C275.998 196.564 275.963 196.186 275.953 195.801H277.18V196.934Z" fill="#77B3DE"/>
<path d="M288.708 195.801H277.919V193.496C277.919 188.915 281.647 185.187 286.229 185.187C287.254 185.187 288.237 185.374 289.144 185.715V193.411C289.144 194.252 288.989 195.058 288.708 195.801ZM277.18 195.801H275.953C275.951 195.725 275.95 195.649 275.95 195.574V192.135C275.95 187.342 279.836 183.456 284.629 183.456C284.875 183.456 285.12 183.466 285.362 183.487L285.626 183.651L285.706 183.523C286.185 183.582 286.651 183.68 287.102 183.814L286.7 184.461C286.544 184.453 286.387 184.449 286.229 184.449C281.239 184.449 277.18 188.508 277.18 193.496V195.801ZM289.144 184.931C288.622 184.752 288.079 184.621 287.519 184.541L287.79 184.105C287.799 184.09 287.808 184.076 287.817 184.06C288.28 184.244 288.723 184.465 289.144 184.722V184.931Z" fill="#46596B"/>
<path d="M287.519 184.541C287.25 184.502 286.977 184.475 286.7 184.461L287.102 183.814C287.345 183.886 287.583 183.968 287.817 184.06C287.808 184.076 287.799 184.09 287.79 184.105L287.519 184.541Z" fill="#435667"/>
<path d="M283.978 202.278C283.775 202.278 283.609 202.113 283.609 201.908C283.609 201.704 283.775 201.539 283.978 201.539C286.047 201.539 287.902 200.606 289.144 199.139V200.213C287.797 201.491 285.978 202.278 283.978 202.278Z" fill="#75B2DD"/>
<path d="M281.207 203.552C280.249 203.14 279.379 202.56 278.635 201.85C277.715 200.434 277.18 198.746 277.18 196.935V196.934H277.919V196.935C277.919 199.632 279.21 202.033 281.207 203.552Z" fill="#75B2DD"/>
<path d="M277.18 196.934H277.919V195.801H277.18V196.934Z" fill="#6EA9D3"/>
<path d="M277.919 195.801H277.18V193.496C277.18 188.508 281.239 184.449 286.229 184.449C286.387 184.449 286.544 184.453 286.7 184.461C286.976 184.475 287.25 184.502 287.519 184.541C288.079 184.621 288.622 184.752 289.144 184.931V185.715C288.237 185.374 287.254 185.187 286.229 185.187C281.647 185.187 277.919 188.915 277.919 193.496V195.801Z" fill="#435667"/>
<path d="M289.882 202.482V199.401C290.217 198.975 290.507 198.512 290.744 198.019V201.732C290.473 202 290.186 202.251 289.882 202.482ZM291.482 200.898V196.934H293.201C292.968 198.413 292.362 199.767 291.482 200.898ZM289.882 198.076V196.934H290.39C290.255 197.333 290.085 197.715 289.882 198.076Z" fill="#7EBCE6"/>
<path d="M293.201 196.934H291.482V195.801H293.305C293.295 196.186 293.259 196.564 293.201 196.934ZM290.39 196.934H289.882V195.801H290.666C290.606 196.19 290.513 196.57 290.39 196.934Z" fill="#77B3DE"/>
<path d="M293.305 195.801H291.482V187.063C291.645 187.197 291.803 187.336 291.956 187.481C292.811 188.826 293.307 190.422 293.307 192.135V195.574C293.307 195.649 293.307 195.725 293.305 195.801ZM290.666 195.801H289.882V193.411V191.503V186.034C290.18 186.181 290.467 186.344 290.744 186.524V194.774C290.744 195.123 290.717 195.466 290.666 195.801Z" fill="#46596B"/>
<path d="M290.744 201.732V198.019C290.911 197.671 291.053 197.309 291.165 196.934H291.482V200.898C291.254 201.192 291.007 201.47 290.744 201.732Z" fill="#75B2DD"/>
<path d="M291.482 196.934H291.165C291.276 196.567 291.359 196.189 291.412 195.801H291.482V196.934Z" fill="#6EA9D3"/>
<path d="M291.482 195.801H291.412C291.458 195.465 291.482 195.122 291.482 194.774V195.801ZM290.744 194.774V186.524C291 186.69 291.247 186.87 291.482 187.063V192.864C291.482 192.661 291.317 192.496 291.113 192.496C290.909 192.496 290.744 192.661 290.744 192.864V194.774Z" fill="#435667"/>
<path d="M289.882 199.401V198.076C290.085 197.715 290.255 197.333 290.39 196.934H291.165C291.052 197.309 290.911 197.671 290.744 198.019C290.507 198.512 290.217 198.975 289.882 199.401Z" fill="#75B2DD"/>
<path d="M291.165 196.934H290.39C290.513 196.57 290.606 196.19 290.666 195.801H291.412C291.359 196.189 291.276 196.567 291.165 196.934Z" fill="#6EA9D3"/>
<path d="M291.412 195.801H290.666C290.717 195.466 290.744 195.123 290.744 194.774V192.864C290.744 192.661 290.909 192.496 291.113 192.496C291.317 192.496 291.482 192.661 291.482 192.864V194.774C291.482 195.122 291.458 195.465 291.412 195.801Z" fill="#435667"/>
<path d="M291.956 187.481C291.803 187.336 291.645 187.197 291.482 187.063C291.247 186.87 291 186.69 290.744 186.524C290.467 186.344 290.18 186.181 289.882 186.034V185.226C290.699 185.848 291.403 186.612 291.956 187.481Z" fill="#435667"/>
<path d="M285.626 183.651L285.362 183.487C285.477 183.496 285.592 183.508 285.706 183.523L285.626 183.651Z" fill="#D4E7E3"/>
<path d="M289.144 202.987V196.656C289.617 195.674 289.882 194.573 289.882 193.411V195.801V196.934V198.076V199.401V202.482C289.645 202.663 289.398 202.831 289.144 202.987ZM289.144 193.411V185.715V184.931V184.722C289.398 184.877 289.645 185.046 289.882 185.226V186.034V191.503C289.882 191.299 289.717 191.134 289.513 191.134C289.309 191.134 289.144 191.299 289.144 191.503V193.411Z" fill="#D4E7E3"/>
<path d="M282.378 200.916C282.174 200.916 282.009 200.75 282.009 200.546C282.009 200.343 282.174 200.177 282.378 200.177C284.819 200.177 286.962 198.878 288.152 196.934C288.371 196.577 288.558 196.198 288.708 195.801C288.989 195.058 289.144 194.252 289.144 193.411V191.503C289.144 191.299 289.309 191.134 289.513 191.134C289.717 191.134 289.882 191.299 289.882 191.503V193.411C289.882 194.573 289.617 195.674 289.144 196.656C289.098 196.751 289.052 196.843 289.003 196.934C287.739 199.301 285.244 200.916 282.378 200.916Z" fill="#D4E7E3"/>
<path d="M284.629 155.266C280.047 155.266 276.319 158.994 276.319 163.575V167.447C276.319 172.029 280.047 175.757 284.629 175.757C289.21 175.757 292.938 172.029 292.938 167.447V163.575C292.938 158.994 289.21 155.266 284.629 155.266ZM284.629 176.496C279.639 176.496 275.581 172.437 275.581 167.447V163.575C275.581 158.587 279.639 154.528 284.629 154.528C289.617 154.528 293.676 158.587 293.676 163.575V167.447C293.676 172.437 289.617 176.496 284.629 176.496Z" fill="#D4E7E3"/>
<path d="M284.629 183.825C280.047 183.825 276.319 187.553 276.319 192.135V195.573C276.319 200.155 280.047 203.883 284.629 203.883C289.21 203.883 292.938 200.155 292.938 195.573V192.135C292.938 187.553 289.21 183.825 284.629 183.825ZM284.629 204.621C279.639 204.621 275.581 200.563 275.581 195.573V192.135C275.581 187.145 279.639 183.087 284.629 183.087C289.617 183.087 293.676 187.145 293.676 192.135V195.573C293.676 200.563 289.617 204.621 284.629 204.621Z" fill="#D4E7E3"/>
<path d="M308.545 113.627C306.052 113.627 303.524 112.992 301.208 111.655C297.276 109.385 294.79 105.572 294.072 101.422C295.532 101.897 297.035 102.127 298.525 102.127C303.535 102.127 308.407 99.5276 311.093 94.8766C312.918 91.7158 313.417 88.1531 312.763 84.8325C313.838 85.1541 314.895 85.6058 315.91 86.1914C322.941 90.2515 325.351 99.2424 321.291 106.274C318.568 110.99 313.627 113.627 308.545 113.627Z" fill="#63A4DA"/>
<path d="M317.284 100.888L309.352 96.3084C308.376 95.7453 308.042 94.4978 308.605 93.5223L308.676 93.3996C309.239 92.4247 310.487 92.0905 311.462 92.6535L319.395 97.2329C320.37 97.7959 320.704 99.0434 320.141 100.019L320.07 100.142C319.507 101.117 318.26 101.451 317.284 100.888Z" fill="white"/>
<path d="M311.093 94.8767C315.096 87.9436 312.72 79.078 305.786 75.075C298.853 71.072 289.988 73.4475 285.984 80.3806C281.982 87.3143 284.357 96.1798 291.29 100.183C298.224 104.186 307.09 101.81 311.093 94.8767Z" fill="white"/>
<path d="M310.572 84.4041C308.791 77.7583 301.96 73.8143 295.314 75.5949C288.668 77.3756 284.724 84.2072 286.504 90.853C288.285 97.4996 295.117 101.444 301.763 99.6629C308.408 97.8816 312.353 91.0507 310.572 84.4041Z" fill="#C3611D"/>
<path d="M298.53 100.09C293.03 100.09 287.996 96.4192 286.505 90.853C286.216 89.776 286.078 88.6936 286.077 87.6285C286.074 82.1247 289.745 77.0871 295.314 75.5949C296.294 75.3323 297.276 75.2082 298.247 75.185C293.316 77.8763 290.665 83.6653 292.184 89.3316C293.674 94.8972 298.709 98.5547 304.21 98.5547C304.309 98.5547 304.409 98.5533 304.508 98.5507C303.656 99.0163 302.743 99.4002 301.763 99.6629C300.682 99.952 299.598 100.09 298.53 100.09Z" fill="#A24E1E"/>
<path d="M154.199 104.315C147.367 104.315 140.535 101.709 135.322 96.4961C124.896 86.07 124.896 69.1665 135.322 58.7411C140.535 53.5278 147.367 50.9214 154.199 50.9214C161.032 50.9214 167.864 53.5278 173.077 58.7411C175.489 61.1532 177.343 63.9114 178.639 66.8566V88.3799C177.343 91.3252 175.489 94.0834 173.077 96.4961C167.864 101.709 161.032 104.315 154.199 104.315Z" fill="#63A4DA"/>
<path d="M178.639 88.3799V66.8566C181.648 73.6954 181.648 81.541 178.639 88.3799Z" fill="#F1F3F5"/>
<path d="M126.48 85.233C116.398 75.1518 116.398 58.8081 126.48 48.7268C136.56 38.6463 152.904 38.6463 162.985 48.7268C173.066 58.8081 173.066 75.1518 162.985 85.233C152.904 95.3136 136.56 95.3136 126.48 85.233Z" fill="#D4E7E3"/>
<path d="M167.386 60.3599C171.024 72.8319 163.862 85.8916 151.39 89.5292C138.917 93.1668 125.858 86.005 122.22 73.5329C118.582 61.0609 125.744 48.0013 138.216 44.363C150.689 40.726 163.749 47.8872 167.386 60.3599Z" fill="#3A4B5E"/>
<path d="M129.786 71.3259C133.053 82.5273 143.903 89.4484 155.117 88.1432C153.94 88.7142 152.702 89.2003 151.404 89.579C138.905 93.2246 125.816 86.0468 122.17 73.5476C118.525 61.0477 125.702 47.9596 138.202 44.3133C139.5 43.9353 140.805 43.6793 142.105 43.5281C131.948 48.4563 126.519 60.1252 129.786 71.3259Z" fill="#28394B"/>
<path d="M144.973 67.4071C144.973 67.4071 154.137 70.8212 165.114 59.844C176.091 48.8668 184.724 27.6552 184.724 27.6552C184.724 27.6552 163.513 36.2887 152.536 47.2659C141.559 58.2431 144.973 67.4071 144.973 67.4071Z" fill="#50C062"/>
<path d="M184.724 27.6552C184.724 27.6552 176.092 48.8668 165.114 59.844C154.137 70.8212 144.973 67.4071 144.973 67.4071L184.724 27.6552Z" fill="#68C979"/>
<path d="M144.983 67.4176C144.983 67.4176 151.769 73.7704 160.698 68.6154C169.626 63.4603 177.317 48.75 177.317 48.75C177.317 48.75 160.732 48.055 151.803 53.21C142.874 58.365 144.983 67.4176 144.983 67.4176Z" fill="#8AD597"/>
<path d="M144.984 67.4176C144.984 67.4176 151.769 73.7704 160.698 68.6154C169.627 63.4603 177.317 48.75 177.317 48.75L144.984 67.4176Z" fill="#B0E2B7"/>
<path d="M144.972 67.4071C144.972 67.4071 134.962 62.1824 125.825 71.3192C116.689 80.4554 111.886 100.493 111.886 100.493C111.886 100.493 131.924 95.691 141.061 86.5541C150.197 77.418 144.972 67.4071 144.972 67.4071Z" fill="#68C979"/>
<path d="M144.972 67.4071C144.972 67.4071 134.962 62.1824 125.825 71.3192C116.689 80.4554 111.886 100.493 111.886 100.493L144.972 67.4071Z" fill="#50C062"/>
<path d="M144.96 67.4303C144.96 67.4303 143.845 61.0564 133.79 58.3618C123.735 55.6672 108.546 57.6734 108.546 57.6734C108.546 57.6734 120.697 67.0046 130.753 69.6991C140.808 72.3937 144.96 67.4303 144.96 67.4303Z" fill="#68C979"/>
<path d="M108.546 57.6733C108.546 57.6733 123.735 55.6671 133.79 58.3617C143.845 61.0562 144.96 67.4302 144.96 67.4302L108.546 57.6733Z" fill="#50C062"/>
<path d="M144.959 67.4317C144.959 67.4317 141.24 72.7273 146.445 81.7428C151.65 90.7582 163.808 100.08 163.808 100.08C163.808 100.08 161.815 84.8896 156.61 75.8741C151.405 66.8587 144.959 67.4317 144.959 67.4317Z" fill="#8AD597"/>
<path d="M163.808 100.08C163.808 100.08 151.65 90.7582 146.445 81.7427C141.24 72.7273 144.959 67.4317 144.959 67.4317L163.808 100.08Z" fill="#B0E2B7"/>
<path d="M93.4687 126.06C93.2611 125.829 93.0084 125.639 92.7252 125.504C92.3465 124.708 91.5348 124.157 90.5944 124.157H80.74C79.8433 123.575 78.9944 122.891 78.2079 122.104C76.9624 120.859 75.9729 119.455 75.2388 117.957C76.1215 118.11 77.0161 118.187 77.9101 118.187C80.2068 118.187 82.5041 117.681 84.619 116.669L84.6216 116.668C86.1675 115.928 87.6173 114.917 88.8986 113.636C93.722 108.812 94.7115 101.606 91.8677 95.805C94.5881 96.2772 97.2077 97.4776 99.4122 99.4042V122.827C97.6441 124.372 95.6088 125.45 93.4687 126.06Z" fill="#63A4DA"/>
<path d="M99.4119 122.827V99.4042C99.6758 99.635 99.9331 99.8751 100.184 100.127C106.253 106.196 106.253 116.035 100.184 122.104C99.9331 122.355 99.6758 122.596 99.4119 122.827Z" fill="#C5D9D7"/>
<path d="M92.9314 126.203C92.8989 125.956 92.8279 125.721 92.7251 125.504C93.0083 125.639 93.261 125.829 93.4685 126.06C93.2901 126.11 93.1111 126.158 92.9314 126.203Z" fill="#5B99D1"/>
<path d="M89.1964 126.656C86.2498 126.656 83.3032 125.823 80.74 124.157H90.5944C91.5348 124.157 92.3466 124.708 92.7252 125.504C92.828 125.721 92.899 125.956 92.9315 126.203C91.7059 126.505 90.4511 126.656 89.1964 126.656Z" fill="#364659"/>
<path d="M88.8984 91.6581C82.8295 85.5892 72.9896 85.5892 66.9208 91.6581C60.8523 97.727 60.8523 107.567 66.9208 113.636C72.9896 119.705 82.8295 119.705 88.8984 113.636C94.9672 107.567 94.9672 97.727 88.8984 91.6581Z" fill="#F1F3F5"/>
<path d="M87.5762 92.9812C82.2375 87.6425 73.5822 87.6425 68.2441 92.9812C62.9056 98.3193 62.9056 106.975 68.2441 112.313C73.5822 117.651 82.2375 117.651 87.5762 112.313C92.9143 106.975 92.9143 98.3193 87.5762 92.9812Z" fill="#31445C"/>
<path d="M41.407 108.126L81.0053 105.782L80.8143 102.565L41.2163 104.909L41.407 108.126Z" fill="#F06E42"/>
<path d="M41.4068 108.126L41.3115 106.517L70.5731 104.785L73.4547 106.229L64.8635 106.738L62.9462 106.851L41.4068 108.126Z" fill="#BA571E"/>
<path d="M78.5771 105.191L77.0073 104.405L77.2242 104.392L78.4657 104.724L78.5771 105.191Z" fill="#BA571E"/>
<path d="M41.2163 104.909L41.4067 108.126L38.6835 108.287C38.3128 108.309 37.9947 108.026 37.9729 107.656L37.8618 105.78C37.84 105.41 38.1227 105.092 38.4931 105.07L41.2163 104.909Z" fill="#F5ABAC"/>
<path d="M40.914 108.155L41.9 108.097L41.7093 104.88L40.7236 104.937L40.914 108.155Z" fill="#78898B"/>
<path d="M41.105 94.7135L90.5962 107.975L91.4292 104.862L41.9389 91.6005L41.105 94.7135Z" fill="#F06E42"/>
<path d="M90.5965 107.975L90.5123 107.952L82.0048 105.673L81.5804 103.891L91.0123 106.418L90.5965 107.975ZM78.466 104.724L76.7039 104.252L69.5474 100.666L78.0422 102.943L78.466 104.724Z" fill="#BA571E"/>
<path d="M61.2396 100.109L41.105 94.7134L41.5218 93.1569L54.0828 96.5226L61.2396 100.109Z" fill="#BA571E"/>
<path d="M41.9391 91.6005L41.105 94.7135L38.47 94.0079C38.1115 93.9117 37.8988 93.543 37.9947 93.1849L38.4812 91.3697C38.5771 91.0116 38.9457 90.7987 39.304 90.8948L41.9391 91.6005Z" fill="#F5ABAC"/>
<path d="M41.5818 94.8414L42.4157 91.7284L41.4619 91.4737L40.6279 94.5868L41.5818 94.8414Z" fill="#78898B"/>
<path d="M42.6682 90.8038L88.4774 113.756L89.9198 110.874L44.112 87.9223L42.6682 90.8038Z" fill="#F06E42"/>
<path d="M88.4777 113.756L86.8853 112.959L83.3127 111.169L82.8259 109.122L89.1979 112.315L88.4777 113.756Z" fill="#BA571E"/>
<path d="M79.5508 109.284L73.4547 106.229L70.5731 104.785L42.6682 90.8039L43.3902 89.3628L79.064 107.237L79.5508 109.284Z" fill="#BA571E"/>
<path d="M44.1121 87.9223L42.6683 90.8038L40.2293 89.5816C39.8977 89.4151 39.7632 89.0112 39.9295 88.6796L40.7712 86.9998C40.9375 86.6682 41.3411 86.5342 41.673 86.7L44.1121 87.9223Z" fill="#F5ABAC"/>
<path d="M43.1102 91.0248L44.554 88.1425L43.6703 87.7008L42.2268 90.5831L43.1102 91.0248Z" fill="#78898B"/>
<path d="M69.6235 67.5709L81.4861 117.416L84.6217 116.668L72.7591 66.8241L69.6235 67.5709Z" fill="#F06E42"/>
<path d="M81.4861 117.416L81.1339 115.934L79.5509 109.284L69.6235 67.5709L71.1913 67.1975L83.0539 117.042L81.4861 117.416Z" fill="#BA571E"/>
<path d="M72.7591 66.8242L69.6235 67.5709L68.9921 64.9168C68.9059 64.556 69.1294 64.1933 69.4902 64.107L71.3179 63.6727C71.6794 63.5864 72.0415 63.8093 72.127 64.1707L72.7591 66.8242Z" fill="#F5ABAC"/>
<path d="M69.7374 68.051L72.873 67.3049L72.6442 66.344L69.5093 67.0901L69.7374 68.051Z" fill="#78898B"/>
<path d="M87.5615 112.299C82.2235 117.637 73.5681 117.637 68.2294 112.299L66.907 113.621C72.9759 119.69 82.8157 119.69 88.8839 113.621C94.9528 107.552 94.9528 97.7131 88.8839 91.6443L87.5615 92.9667C92.9002 98.3054 92.9002 106.961 87.5615 112.299Z" fill="#F1F3F5"/>
<path d="M255.612 207.03H131.402C128.481 207.03 126.112 204.662 126.112 201.74V117.413C126.112 116.82 126.593 116.339 127.186 116.339H259.828C260.421 116.339 260.902 116.82 260.902 117.413V201.74C260.902 204.662 258.534 207.03 255.612 207.03Z" fill="#63A4DA"/>
<path d="M123.696 116.32H258.485V199.779C258.485 202.7 256.117 205.068 253.196 205.068H128.985C126.064 205.068 123.696 202.7 123.696 199.779V116.32Z" fill="#4C6076"/>
<path d="M133.575 124.433C133.196 124.811 132.986 125.314 132.987 125.848V166.223C132.988 167.325 133.883 168.221 134.984 168.221L247.46 168.22C247.989 168.222 248.498 168.01 248.872 167.636C249.25 167.259 249.457 166.757 249.457 166.224L249.458 125.848C249.457 125.314 249.25 124.812 248.873 124.436C248.495 124.058 247.994 123.851 247.46 123.852L134.984 123.851C134.806 123.85 134.631 123.873 134.463 123.918C134.131 124.007 133.826 124.182 133.575 124.433ZM247.459 168.966L134.984 168.967C133.472 168.966 132.242 167.736 132.242 166.224L132.241 125.848C132.242 125.114 132.528 124.425 133.049 123.905C133.567 123.386 134.256 123.103 134.984 123.105L247.46 123.105C248.193 123.105 248.882 123.39 249.4 123.909C249.918 124.426 250.203 125.114 250.203 125.847V166.222C250.203 166.957 249.918 167.645 249.4 168.164C249.059 168.504 248.635 168.75 248.175 168.873C247.943 168.935 247.702 168.967 247.459 168.966Z" fill="#28394B"/>
<path d="M103.287 110.263H278.895L258.485 116.32H123.696L103.287 110.263Z" fill="#28394B"/>
<path d="M104.831 107.581H277.35C278.203 107.581 278.895 108.272 278.895 109.126V110.263H103.287V109.126C103.287 108.272 103.978 107.581 104.831 107.581Z" fill="#43566D"/>
<path d="M170.751 174.415C170.529 174.636 170.407 174.929 170.407 175.24V198.162C170.407 198.473 170.529 198.764 170.749 198.985C170.97 199.206 171.262 199.327 171.572 199.327H210.609C211.254 199.33 211.774 198.79 211.774 198.162V175.24C211.774 174.598 211.251 174.074 210.608 174.075H171.572C171.468 174.074 171.367 174.088 171.269 174.114C171.075 174.166 170.897 174.269 170.751 174.415Z" fill="#3A4B5E"/>
<path d="M159.077 129.711H153.689C153.311 129.711 153.005 129.405 153.005 129.027V127.016C153.005 126.639 153.311 126.333 153.689 126.333H159.077C159.455 126.333 159.761 126.639 159.761 127.016V129.027C159.761 129.405 159.455 129.711 159.077 129.711Z" fill="#28394B"/>
<path d="M167.767 129.711H162.378C162 129.711 161.694 129.405 161.694 129.027V127.016C161.694 126.639 162 126.333 162.378 126.333H167.767C168.144 126.333 168.451 126.639 168.451 127.016V129.027C168.451 129.405 168.144 129.711 167.767 129.711Z" fill="#28394B"/>
<path d="M176.456 129.711H171.068C170.69 129.711 170.384 129.405 170.384 129.027V127.016C170.384 126.639 170.69 126.333 171.068 126.333H176.456C176.834 126.333 177.14 126.639 177.14 127.016V129.027C177.14 129.405 176.834 129.711 176.456 129.711Z" fill="#28394B"/>
<path d="M185.145 129.711H179.757C179.379 129.711 179.073 129.405 179.073 129.027V127.016C179.073 126.639 179.379 126.333 179.757 126.333H185.145C185.523 126.333 185.83 126.639 185.83 127.016V129.027C185.83 129.405 185.523 129.711 185.145 129.711Z" fill="#28394B"/>
<path d="M193.835 129.711H188.447C188.069 129.711 187.762 129.405 187.762 129.027V127.016C187.762 126.639 188.069 126.333 188.447 126.333H193.835C194.213 126.333 194.519 126.639 194.519 127.016V129.027C194.519 129.405 194.213 129.711 193.835 129.711Z" fill="#28394B"/>
<path d="M202.524 129.711H197.136C196.758 129.711 196.452 129.405 196.452 129.027V127.016C196.452 126.639 196.758 126.333 197.136 126.333H202.524C202.902 126.333 203.209 126.639 203.209 127.016V129.027C203.209 129.405 202.902 129.711 202.524 129.711Z" fill="#28394B"/>
<path d="M211.214 129.711H205.826C205.448 129.711 205.141 129.405 205.141 129.027V127.016C205.141 126.639 205.448 126.333 205.826 126.333H211.214C211.592 126.333 211.898 126.639 211.898 127.016V129.027C211.898 129.405 211.592 129.711 211.214 129.711Z" fill="#28394B"/>
<path d="M219.903 129.711H214.515C214.137 129.711 213.83 129.405 213.83 129.027V127.016C213.83 126.639 214.137 126.333 214.515 126.333H219.903C220.281 126.333 220.587 126.639 220.587 127.016V129.027C220.587 129.405 220.281 129.711 219.903 129.711Z" fill="#28394B"/>
<path d="M228.592 129.711H223.204C222.826 129.711 222.52 129.405 222.52 129.027V127.016C222.52 126.639 222.826 126.333 223.204 126.333H228.592C228.97 126.333 229.277 126.639 229.277 127.016V129.027C229.277 129.405 228.97 129.711 228.592 129.711Z" fill="#28394B"/>
<path d="M159.051 140.144H153.716C153.323 140.144 153.005 139.826 153.005 139.433V134.098C153.005 133.706 153.323 133.388 153.716 133.388H159.051C159.443 133.388 159.761 133.706 159.761 134.098V139.433C159.761 139.826 159.443 140.144 159.051 140.144Z" fill="#28394B"/>
<path d="M167.74 140.144H162.405C162.012 140.144 161.694 139.826 161.694 139.433V134.098C161.694 133.706 162.012 133.388 162.405 133.388H167.74C168.132 133.388 168.451 133.706 168.451 134.098V139.433C168.451 139.826 168.132 140.144 167.74 140.144Z" fill="#28394B"/>
<path d="M176.429 140.144H171.094C170.701 140.144 170.384 139.826 170.384 139.433V134.098C170.384 133.706 170.701 133.388 171.094 133.388H176.429C176.822 133.388 177.14 133.706 177.14 134.098V139.433C177.14 139.826 176.822 140.144 176.429 140.144Z" fill="#28394B"/>
<path d="M185.119 140.144H179.784C179.391 140.144 179.073 139.826 179.073 139.433V134.098C179.073 133.706 179.391 133.388 179.784 133.388H185.119C185.511 133.388 185.83 133.706 185.83 134.098V139.433C185.83 139.826 185.511 140.144 185.119 140.144Z" fill="#28394B"/>
<path d="M193.809 140.144H188.473C188.081 140.144 187.762 139.826 187.762 139.433V134.098C187.762 133.706 188.081 133.388 188.473 133.388H193.809C194.201 133.388 194.519 133.706 194.519 134.098V139.433C194.519 139.826 194.201 140.144 193.809 140.144Z" fill="#28394B"/>
<path d="M202.498 140.144H197.162C196.77 140.144 196.452 139.826 196.452 139.433V134.098C196.452 133.706 196.77 133.388 197.162 133.388H202.498C202.89 133.388 203.209 133.706 203.209 134.098V139.433C203.209 139.826 202.89 140.144 202.498 140.144Z" fill="#28394B"/>
<path d="M211.187 140.144H205.852C205.46 140.144 205.141 139.826 205.141 139.433V134.098C205.141 133.706 205.46 133.388 205.852 133.388H211.187C211.58 133.388 211.898 133.706 211.898 134.098V139.433C211.898 139.826 211.58 140.144 211.187 140.144Z" fill="#28394B"/>
<path d="M219.877 140.144H214.541C214.149 140.144 213.83 139.826 213.83 139.433V134.098C213.83 133.706 214.149 133.388 214.541 133.388H219.877C220.269 133.388 220.587 133.706 220.587 134.098V139.433C220.587 139.826 220.269 140.144 219.877 140.144Z" fill="#28394B"/>
<path d="M228.566 140.144H223.23C222.838 140.144 222.52 139.826 222.52 139.433V134.098C222.52 133.706 222.838 133.388 223.23 133.388H228.566C228.958 133.388 229.277 133.706 229.277 134.098V139.433C229.277 139.826 228.958 140.144 228.566 140.144Z" fill="#28394B"/>
<path d="M159.051 148.67H153.716C153.323 148.67 153.005 148.352 153.005 147.959V142.625C153.005 142.232 153.323 141.914 153.716 141.914H159.051C159.443 141.914 159.761 142.232 159.761 142.625V147.959C159.761 148.352 159.443 148.67 159.051 148.67Z" fill="#28394B"/>
<path d="M167.74 148.67H162.405C162.012 148.67 161.694 148.352 161.694 147.959V142.625C161.694 142.232 162.012 141.914 162.405 141.914H167.74C168.132 141.914 168.451 142.232 168.451 142.625V147.959C168.451 148.352 168.132 148.67 167.74 148.67Z" fill="#28394B"/>
<path d="M176.429 148.67H171.094C170.701 148.67 170.384 148.352 170.384 147.959V142.625C170.384 142.232 170.701 141.914 171.094 141.914H176.429C176.822 141.914 177.14 142.232 177.14 142.625V147.959C177.14 148.352 176.822 148.67 176.429 148.67Z" fill="#28394B"/>
<path d="M185.119 148.67H179.784C179.391 148.67 179.073 148.352 179.073 147.959V142.625C179.073 142.232 179.391 141.914 179.784 141.914H185.119C185.511 141.914 185.83 142.232 185.83 142.625V147.959C185.83 148.352 185.511 148.67 185.119 148.67Z" fill="#28394B"/>
<path d="M193.809 148.67H188.473C188.081 148.67 187.762 148.352 187.762 147.959V142.625C187.762 142.232 188.081 141.914 188.473 141.914H193.809C194.201 141.914 194.519 142.232 194.519 142.625V147.959C194.519 148.352 194.201 148.67 193.809 148.67Z" fill="#28394B"/>
<path d="M202.498 148.67H197.162C196.77 148.67 196.452 148.352 196.452 147.959V142.625C196.452 142.232 196.77 141.914 197.162 141.914H202.498C202.89 141.914 203.209 142.232 203.209 142.625V147.959C203.209 148.352 202.89 148.67 202.498 148.67Z" fill="#28394B"/>
<path d="M211.187 148.67H205.852C205.46 148.67 205.141 148.352 205.141 147.959V142.625C205.141 142.232 205.46 141.914 205.852 141.914H211.187C211.58 141.914 211.898 142.232 211.898 142.625V147.959C211.898 148.352 211.58 148.67 211.187 148.67Z" fill="#28394B"/>
<path d="M219.877 148.67H214.541C214.149 148.67 213.83 148.352 213.83 147.959V142.625C213.83 142.232 214.149 141.914 214.541 141.914H219.877C220.269 141.914 220.587 142.232 220.587 142.625V147.959C220.587 148.352 220.269 148.67 219.877 148.67Z" fill="#28394B"/>
<path d="M228.566 148.67H223.23C222.838 148.67 222.52 148.352 222.52 147.959V142.625C222.52 142.232 222.838 141.914 223.23 141.914H228.566C228.958 141.914 229.277 142.232 229.277 142.625V147.959C229.277 148.352 228.958 148.67 228.566 148.67Z" fill="#28394B"/>
<path d="M159.072 157.196H153.694C153.313 157.196 153.005 156.888 153.005 156.507V151.129C153.005 150.748 153.313 150.44 153.694 150.44H159.072C159.453 150.44 159.761 150.748 159.761 151.129V156.507C159.761 156.888 159.453 157.196 159.072 157.196Z" fill="#28394B"/>
<path d="M167.762 157.196H162.383C162.002 157.196 161.694 156.888 161.694 156.507V151.129C161.694 150.748 162.002 150.44 162.383 150.44H167.762C168.142 150.44 168.451 150.748 168.451 151.129V156.507C168.451 156.888 168.142 157.196 167.762 157.196Z" fill="#28394B"/>
<path d="M176.451 157.196H171.073C170.692 157.196 170.384 156.888 170.384 156.507V151.129C170.384 150.748 170.692 150.44 171.073 150.44H176.451C176.831 150.44 177.14 150.748 177.14 151.129V156.507C177.14 156.888 176.831 157.196 176.451 157.196Z" fill="#28394B"/>
<path d="M185.141 157.196H179.762C179.381 157.196 179.073 156.888 179.073 156.507V151.129C179.073 150.748 179.381 150.44 179.762 150.44H185.141C185.521 150.44 185.83 150.748 185.83 151.129V156.507C185.83 156.888 185.521 157.196 185.141 157.196Z" fill="#28394B"/>
<path d="M193.83 157.196H188.452C188.071 157.196 187.762 156.888 187.762 156.507V151.129C187.762 150.748 188.071 150.44 188.452 150.44H193.83C194.211 150.44 194.519 150.748 194.519 151.129V156.507C194.519 156.888 194.211 157.196 193.83 157.196Z" fill="#28394B"/>
<path d="M202.52 157.196H197.141C196.761 157.196 196.452 156.888 196.452 156.507V151.129C196.452 150.748 196.761 150.44 197.141 150.44H202.52C202.9 150.44 203.209 150.748 203.209 151.129V156.507C203.209 156.888 202.9 157.196 202.52 157.196Z" fill="#28394B"/>
<path d="M211.209 157.196H205.83C205.45 157.196 205.141 156.888 205.141 156.507V151.129C205.141 150.748 205.45 150.44 205.83 150.44H211.209C211.59 150.44 211.898 150.748 211.898 151.129V156.507C211.898 156.888 211.59 157.196 211.209 157.196Z" fill="#28394B"/>
<path d="M219.898 157.196H214.519C214.139 157.196 213.83 156.888 213.83 156.507V151.129C213.83 150.748 214.139 150.44 214.519 150.44H219.898C220.279 150.44 220.587 150.748 220.587 151.129V156.507C220.587 156.888 220.279 157.196 219.898 157.196Z" fill="#28394B"/>
<path d="M228.588 157.196H223.209C222.828 157.196 222.52 156.888 222.52 156.507V151.129C222.52 150.748 222.828 150.44 223.209 150.44H228.588C228.968 150.44 229.277 150.748 229.277 151.129V156.507C229.277 156.888 228.968 157.196 228.588 157.196Z" fill="#28394B"/>
<path d="M159.072 165.722H153.694C153.313 165.722 153.005 165.414 153.005 165.033V159.655C153.005 159.274 153.313 158.966 153.694 158.966H159.072C159.453 158.966 159.761 159.274 159.761 159.655V165.033C159.761 165.414 159.453 165.722 159.072 165.722Z" fill="#28394B"/>
<path d="M167.762 165.722H162.383C162.002 165.722 161.694 165.414 161.694 165.033V159.655C161.694 159.274 162.002 158.966 162.383 158.966H167.762C168.142 158.966 168.451 159.274 168.451 159.655V165.033C168.451 165.414 168.142 165.722 167.762 165.722Z" fill="#28394B"/>
<path d="M150.388 129.711H144.999C144.621 129.711 144.316 129.405 144.316 129.027V127.016C144.316 126.639 144.621 126.333 144.999 126.333H150.388C150.766 126.333 151.072 126.639 151.072 127.016V129.027C151.072 129.405 150.766 129.711 150.388 129.711Z" fill="#28394B"/>
<path d="M150.361 140.144H145.026C144.633 140.144 144.316 139.826 144.316 139.433V134.098C144.316 133.706 144.633 133.388 145.026 133.388H150.361C150.754 133.388 151.072 133.706 151.072 134.098V139.433C151.072 139.826 150.754 140.144 150.361 140.144Z" fill="#28394B"/>
<path d="M150.361 148.67H145.026C144.633 148.67 144.316 148.352 144.316 147.959V142.625C144.316 142.232 144.633 141.914 145.026 141.914H150.361C150.754 141.914 151.072 142.232 151.072 142.625V147.959C151.072 148.352 150.754 148.67 150.361 148.67Z" fill="#28394B"/>
<path d="M150.383 165.722H145.004C144.624 165.722 144.316 165.414 144.316 165.033V159.655C144.316 159.274 144.624 158.966 145.004 158.966H150.383C150.763 158.966 151.072 159.274 151.072 159.655V165.033C151.072 165.414 150.763 165.722 150.383 165.722Z" fill="#28394B"/>
<path d="M141.699 129.711H136.31C135.932 129.711 135.626 129.405 135.626 129.027V127.016C135.626 126.639 135.932 126.333 136.31 126.333H141.699C142.076 126.333 142.383 126.639 142.383 127.016V129.027C142.383 129.405 142.076 129.711 141.699 129.711Z" fill="#28394B"/>
<path d="M141.672 140.144H136.337C135.944 140.144 135.626 139.826 135.626 139.433V134.098C135.626 133.706 135.944 133.388 136.337 133.388H141.672C142.064 133.388 142.383 133.706 142.383 134.098V139.433C142.383 139.826 142.064 140.144 141.672 140.144Z" fill="#28394B"/>
<path d="M141.672 148.67H136.337C135.944 148.67 135.626 148.352 135.626 147.959V142.625C135.626 142.232 135.944 141.914 136.337 141.914H141.672C142.064 141.914 142.383 142.232 142.383 142.625V147.959C142.383 148.352 142.064 148.67 141.672 148.67Z" fill="#28394B"/>
<path d="M150.728 157.196H136.315C135.934 157.196 135.626 156.888 135.626 156.507V151.129C135.626 150.748 135.934 150.44 136.315 150.44H150.728C151.108 150.44 151.417 150.748 151.417 151.129V156.507C151.417 156.888 151.108 157.196 150.728 157.196Z" fill="#28394B"/>
<path d="M141.694 165.722H136.315C135.934 165.722 135.626 165.414 135.626 165.033V159.655C135.626 159.274 135.934 158.966 136.315 158.966H141.694C142.074 158.966 142.383 159.274 142.383 159.655V165.033C142.383 165.414 142.074 165.722 141.694 165.722Z" fill="#28394B"/>
<path d="M219.898 165.722H214.519C214.139 165.722 213.83 165.414 213.83 165.033V159.655C213.83 159.274 214.139 158.966 214.519 158.966H219.898C220.279 158.966 220.587 159.274 220.587 159.655V165.033C220.587 165.414 220.279 165.722 219.898 165.722Z" fill="#28394B"/>
<path d="M228.588 165.722H223.209C222.828 165.722 222.52 165.414 222.52 165.033V159.655C222.52 159.274 222.828 158.966 223.209 158.966H228.588C228.968 158.966 229.277 159.274 229.277 159.655V165.033C229.277 165.414 228.968 165.722 228.588 165.722Z" fill="#28394B"/>
<path d="M237.252 129.711H231.864C231.486 129.711 231.179 129.405 231.179 129.027V127.016C231.179 126.639 231.486 126.333 231.864 126.333H237.252C237.63 126.333 237.936 126.639 237.936 127.016V129.027C237.936 129.405 237.63 129.711 237.252 129.711Z" fill="#28394B"/>
<path d="M237.226 140.144H231.89C231.498 140.144 231.179 139.826 231.179 139.433V134.098C231.179 133.706 231.498 133.388 231.89 133.388H237.226C237.618 133.388 237.936 133.706 237.936 134.098V139.433C237.936 139.826 237.618 140.144 237.226 140.144Z" fill="#28394B"/>
<path d="M237.226 148.67H231.89C231.498 148.67 231.179 148.352 231.179 147.959V142.625C231.179 142.232 231.498 141.914 231.89 141.914H237.226C237.618 141.914 237.936 142.232 237.936 142.625V147.959C237.936 148.352 237.618 148.67 237.226 148.67Z" fill="#28394B"/>
<path d="M245.907 157.196H231.868C231.488 157.196 231.179 156.888 231.179 156.507V151.129C231.179 150.748 231.488 150.44 231.868 150.44H245.907C246.288 150.44 246.596 150.748 246.596 151.129V156.507C246.596 156.888 246.288 157.196 245.907 157.196Z" fill="#28394B"/>
<path d="M237.247 165.722H231.868C231.488 165.722 231.179 165.414 231.179 165.033V159.655C231.179 159.274 231.488 158.966 231.868 158.966H237.247C237.628 158.966 237.936 159.274 237.936 159.655V165.033C237.936 165.414 237.628 165.722 237.247 165.722Z" fill="#28394B"/>
<path d="M245.912 129.711H240.523C240.146 129.711 239.84 129.405 239.84 129.027V127.016C239.84 126.639 240.146 126.333 240.523 126.333H245.912C246.29 126.333 246.596 126.639 246.596 127.016V129.027C246.596 129.405 246.29 129.711 245.912 129.711Z" fill="#28394B"/>
<path d="M245.885 140.144H240.551C240.158 140.144 239.84 139.826 239.84 139.433V134.098C239.84 133.706 240.158 133.388 240.551 133.388H245.885C246.278 133.388 246.596 133.706 246.596 134.098V139.433C246.596 139.826 246.278 140.144 245.885 140.144Z" fill="#28394B"/>
<path d="M245.885 148.67H240.551C240.158 148.67 239.84 148.352 239.84 147.959V142.625C239.84 142.232 240.158 141.914 240.551 141.914H245.885C246.278 141.914 246.596 142.232 246.596 142.625V147.959C246.596 148.352 246.278 148.67 245.885 148.67Z" fill="#28394B"/>
<path d="M245.907 165.722H240.529C240.148 165.722 239.84 165.414 239.84 165.033V159.655C239.84 159.274 240.148 158.966 240.529 158.966H245.907C246.288 158.966 246.596 159.274 246.596 159.655V165.033C246.596 165.414 246.288 165.722 245.907 165.722Z" fill="#28394B"/>
<path d="M211.209 165.722H171.073C170.692 165.722 170.384 165.414 170.384 165.033V159.655C170.384 159.274 170.692 158.966 171.073 158.966H211.209C211.589 158.966 211.898 159.274 211.898 159.655V165.033C211.898 165.414 211.589 165.722 211.209 165.722Z" fill="#28394B"/>
</svg>
